<svg width="165" height="38" viewBox="0 0 165 38" fill="none" xmlns="http://www.w3.org/2000/svg">
<path d="M57 14.1919C55.944 14.1919 55.016 13.9572 54.216 13.4879C53.4267 13.0079 52.8133 12.3412 52.376 11.4879C51.9387 10.6346 51.72 9.63724 51.72 8.49591C51.72 7.34391 51.944 6.32524 52.392 5.43991C52.8507 4.55458 53.5067 3.86124 54.36 3.35991C55.2133 2.85858 56.2267 2.60791 57.4 2.60791C58.744 2.60791 59.8533 2.92791 60.728 3.56791C61.6027 4.20791 62.1733 5.09324 62.44 6.22391H59.768C59.608 5.77591 59.3253 5.42924 58.92 5.18391C58.5253 4.93858 58.0133 4.81591 57.384 4.81591C56.6907 4.81591 56.0987 4.97058 55.608 5.27991C55.128 5.57858 54.7653 6.00524 54.52 6.55991C54.2853 7.10391 54.168 7.74924 54.168 8.49591C54.168 9.26391 54.2907 9.91458 54.536 10.4479C54.7813 10.9812 55.1333 11.3866 55.592 11.6639C56.0613 11.9306 56.6213 12.0639 57.272 12.0639C58.1893 12.0639 58.8827 11.8239 59.352 11.3439C59.832 10.8639 60.1253 10.2612 60.232 9.53591H57.608V7.74391H62.632V13.9999H60.424L60.232 12.7039C60.008 13.0239 59.7413 13.2959 59.432 13.5199C59.1333 13.7439 58.7813 13.9092 58.376 14.0159C57.9813 14.1332 57.5227 14.1919 57 14.1919ZM72.6033 13.9999V2.79991H75.0033V12.1439H79.8193V13.9999H72.6033ZM93.929 14.1919C92.8303 14.1919 91.8597 13.9466 91.017 13.4559C90.185 12.9652 89.529 12.2879 89.049 11.4239C88.5797 10.5492 88.345 9.54124 88.345 8.39991C88.345 7.25858 88.5797 6.25591 89.049 5.39191C89.529 4.51724 90.185 3.83458 91.017 3.34391C91.8597 2.85324 92.8303 2.60791 93.929 2.60791C95.0277 2.60791 95.9983 2.85324 96.841 3.34391C97.6837 3.83458 98.3397 4.51724 98.809 5.39191C99.2783 6.25591 99.513 7.25858 99.513 8.39991C99.513 9.54124 99.2783 10.5492 98.809 11.4239C98.3397 12.2879 97.6837 12.9652 96.841 13.4559C95.9983 13.9466 95.0277 14.1919 93.929 14.1919ZM93.929 12.0319C94.5797 12.0319 95.1397 11.8826 95.609 11.5839C96.0783 11.2852 96.441 10.8692 96.697 10.3359C96.953 9.79191 97.081 9.14658 97.081 8.39991C97.081 7.65324 96.953 7.01324 96.697 6.47991C96.441 5.93591 96.0783 5.51991 95.609 5.23191C95.1397 4.93324 94.5797 4.78391 93.929 4.78391C93.289 4.78391 92.7343 4.93324 92.265 5.23191C91.7957 5.51991 91.433 5.93591 91.177 6.47991C90.921 7.01324 90.793 7.65324 90.793 8.39991C90.793 9.14658 90.921 9.79191 91.177 10.3359C91.433 10.8692 91.7957 11.2852 92.265 11.5839C92.7343 11.8826 93.289 12.0319 93.929 12.0319ZM114.394 14.1919C113.264 14.1919 112.293 13.9519 111.482 13.4719C110.672 12.9812 110.048 12.3039 109.61 11.4399C109.173 10.5652 108.954 9.56258 108.954 8.43191C108.954 7.27991 109.173 6.27191 109.61 5.40791C110.048 4.53324 110.672 3.85058 111.482 3.35991C112.293 2.85858 113.264 2.60791 114.394 2.60791C115.77 2.60791 116.901 2.95458 117.786 3.64791C118.672 4.34124 119.221 5.31724 119.434 6.57591H116.794C116.677 6.01058 116.41 5.57324 115.994 5.26391C115.578 4.94391 115.034 4.78391 114.362 4.78391C113.733 4.78391 113.194 4.93324 112.746 5.23191C112.309 5.53058 111.973 5.95191 111.738 6.49591C111.514 7.02924 111.402 7.67458 111.402 8.43191C111.402 9.16791 111.514 9.80791 111.738 10.3519C111.973 10.8852 112.309 11.3012 112.746 11.5999C113.194 11.8879 113.733 12.0319 114.362 12.0319C115.034 12.0319 115.573 11.8932 115.978 11.6159C116.394 11.3279 116.666 10.9172 116.794 10.3839H119.434C119.221 11.5679 118.672 12.5012 117.786 13.1839C116.901 13.8559 115.77 14.1919 114.394 14.1919ZM128.398 13.9999L132.478 2.79991H135.23L139.294 13.9999H136.766L133.838 5.50391L130.91 13.9999H128.398ZM130.174 11.5519L130.798 9.69591H136.686L137.31 11.5519H130.174ZM148.681 13.9999V2.79991H151.081V12.1439H155.897V13.9999H148.681Z" fill="white"/>
<path d="M57.016 34.1919C55.9493 34.1919 55.0213 33.9572 54.232 33.4879C53.4427 33.0079 52.824 32.3412 52.376 31.4879C51.9387 30.6239 51.72 29.6212 51.72 28.4799C51.72 27.3279 51.944 26.3146 52.392 25.4399C52.8507 24.5546 53.5013 23.8612 54.344 23.3599C55.1973 22.8586 56.2107 22.6079 57.384 22.6079C58.7067 22.6079 59.8 22.9279 60.664 23.5679C61.5387 24.1972 62.104 25.0719 62.36 26.1919H59.864C59.704 25.7119 59.4107 25.3386 58.984 25.0719C58.568 24.8052 58.0293 24.6719 57.368 24.6719C56.6427 24.6719 56.0293 24.8266 55.528 25.1359C55.0267 25.4452 54.648 25.8879 54.392 26.4639C54.136 27.0292 54.008 27.7066 54.008 28.4959C54.008 29.2852 54.136 29.9572 54.392 30.5119C54.6587 31.0666 55.032 31.4879 55.512 31.7759C56.0027 32.0639 56.5787 32.2079 57.24 32.2079C58.2 32.2079 58.9253 31.9519 59.416 31.4399C59.9173 30.9172 60.216 30.2559 60.312 29.4559H57.608V27.7919H62.568V33.9999H60.504L60.328 32.6239C60.0933 32.9546 59.8213 33.2372 59.512 33.4719C59.2027 33.7066 58.84 33.8826 58.424 33.9999C58.0187 34.1279 57.5493 34.1919 57.016 34.1919ZM71.9964 33.9999L76.0764 22.7999H78.6204L82.7004 33.9999H80.3324L77.3404 25.3439L74.3324 33.9999H71.9964ZM73.7884 31.4879L74.3804 29.7439H80.1404L80.7164 31.4879H73.7884ZM92.2986 33.9999V22.7999H94.9866L98.3626 29.6959L101.691 22.7999H104.363V33.9999H102.123V26.5919L99.2266 32.4319H97.4506L94.5386 26.5919V33.9999H92.2986ZM114.693 33.9999V22.7999H122.101V24.6079H116.933V27.4399H121.621V29.1839H116.933V32.1919H122.101V33.9999H114.693ZM136.1 34.1919C135.29 34.1919 134.564 34.0532 133.924 33.7759C133.295 33.4986 132.794 33.0932 132.42 32.5599C132.047 32.0266 131.855 31.3812 131.844 30.6239H134.212C134.223 30.9439 134.303 31.2319 134.452 31.4879C134.612 31.7439 134.831 31.9466 135.108 32.0959C135.386 32.2452 135.711 32.3199 136.084 32.3199C136.415 32.3199 136.698 32.2666 136.932 32.1599C137.178 32.0532 137.364 31.9039 137.492 31.7119C137.631 31.5199 137.7 31.2852 137.7 31.0079C137.7 30.7092 137.62 30.4532 137.46 30.2399C137.311 30.0266 137.103 29.8452 136.836 29.6959C136.57 29.5466 136.26 29.4132 135.908 29.2959C135.567 29.1679 135.199 29.0399 134.804 28.9119C133.919 28.6239 133.242 28.2399 132.772 27.7599C132.314 27.2799 132.084 26.6399 132.084 25.8399C132.084 25.1572 132.244 24.5759 132.564 24.0959C132.895 23.6159 133.348 23.2479 133.924 22.9919C134.511 22.7359 135.172 22.6079 135.908 22.6079C136.666 22.6079 137.332 22.7412 137.908 23.0079C138.484 23.2639 138.938 23.6372 139.268 24.1279C139.61 24.6186 139.791 25.1999 139.812 25.8719H137.412C137.402 25.6266 137.332 25.4026 137.204 25.1999C137.076 24.9866 136.9 24.8159 136.676 24.6879C136.452 24.5599 136.186 24.4959 135.876 24.4959C135.61 24.4852 135.364 24.5279 135.14 24.6239C134.927 24.7092 134.756 24.8426 134.628 25.0239C134.5 25.1946 134.436 25.4132 134.436 25.6799C134.436 25.9466 134.5 26.1706 134.628 26.3519C134.756 26.5226 134.932 26.6719 135.156 26.7999C135.391 26.9279 135.663 27.0506 135.972 27.1679C136.282 27.2746 136.618 27.3866 136.98 27.5039C137.546 27.6959 138.063 27.9252 138.532 28.1919C139.002 28.4479 139.375 28.7839 139.652 29.1999C139.94 29.6159 140.084 30.1652 140.084 30.8479C140.084 31.4452 139.93 31.9999 139.62 32.5119C139.311 33.0132 138.863 33.4186 138.276 33.7279C137.69 34.0372 136.964 34.1919 136.1 34.1919Z" fill="#00EBCE"/>
<mask id="mask0_14_83" style="mask-type:luminance" maskUnits="userSpaceOnUse" x="0" y="0" width="38" height="38">
<path d="M38 19C38 8.50659 29.4934 0 19 0C8.50659 0 0 8.50659 0 19C0 29.4934 8.50659 38 19 38C29.4934 38 38 29.4934 38 19Z" fill="white"/>
</mask>
<g mask="url(#mask0_14_83)">
<path d="M19 38C29.4934 38 38 29.4934 38 19C38 8.50659 29.4934 0 19 0C8.50659 0 0 8.50659 0 19C0 29.4934 8.50659 38 19 38Z" fill="url(#paint0_linear_14_83)"/>
<path d="M29 59C39.4934 59 48 50.4934 48 40C48 29.5066 39.4934 21 29 21C18.5066 21 10 29.5066 10 40C10 50.4934 18.5066 59 29 59Z" fill="#00EBCE"/>
<path d="M26 28.9999C24.8333 28.1666 20.9 26.8999 14.5 28.4999" stroke="url(#paint1_linear_14_83)" stroke-linecap="round"/>
<path d="M25.7566 20.6611C25.7566 20.6611 25.2917 14.9888 24.9523 12.9034C24.6129 10.8179 23.1332 10.5732 23.1332 10.5732C23.2004 10.2133 22.9539 9.86565 22.5821 9.79613L20.2425 9.3587C19.8707 9.28919 19.5152 9.52425 19.4479 9.88416L14.1621 8.89591C14.2294 8.53602 13.9829 8.18839 13.6111 8.11887L11.2723 7.68161C10.9005 7.6121 10.545 7.84716 10.4778 8.20707C10.3142 8.18004 8.95971 8.01548 7.95646 9.72575C6.88652 11.5477 4.40358 16.6689 4.40358 16.6689C4.40358 16.6689 2.99144 20.3212 5.62461 21.1345C8.25777 21.9479 9.29436 17.648 12.2568 18.2986L17.8471 19.3438C20.8441 19.8083 20.2566 24.1912 23.0067 24.3843C25.7542 24.5761 25.7566 20.6611 25.7566 20.6611ZM10.5855 14.0158C9.55953 13.824 8.87799 12.8629 9.06367 11.8698C9.24951 10.8758 10.2321 10.2267 11.2581 10.4185C12.285 10.6105 12.9656 11.5714 12.7799 12.5646C12.5943 13.5577 11.6115 14.2076 10.5855 14.0158ZM19.5605 14.5462C19.1665 14.4725 18.9055 14.1045 18.9768 13.7232C19.0481 13.3418 19.4245 13.0929 19.8184 13.1666C20.2123 13.2403 20.4733 13.6083 20.4021 13.9896C20.3316 14.3711 19.9544 14.6198 19.5605 14.5462ZM20.7851 16.273C20.3911 16.1994 20.1301 15.8313 20.2014 15.45C20.2727 15.0687 20.6491 14.8198 21.043 14.8935C21.4369 14.9671 21.6979 15.3352 21.6267 15.7165C21.5554 16.0978 21.179 16.3467 20.7851 16.273ZM21.3261 13.3794C20.9321 13.3057 20.6711 12.9377 20.7424 12.5564C20.8137 12.175 21.1901 11.9262 21.584 11.9998C21.9779 12.0735 22.239 12.4415 22.1677 12.8228C22.0965 13.2033 21.72 13.453 21.3261 13.3794ZM22.5508 15.1054C22.1569 15.0317 21.8959 14.6637 21.9672 14.2824C22.0385 13.901 22.4148 13.6522 22.8088 13.7258C23.2027 13.7995 23.4637 14.1675 23.3924 14.5488C23.3211 14.9302 22.9448 15.179 22.5508 15.1054Z" fill="white"/>
<path d="M26.5 29L24.5 11" stroke="white" stroke-linecap="round"/>
</g>
<defs>
<linearGradient id="paint0_linear_14_83" x1="23.5" y1="38" x2="4" y2="7.5" gradientUnits="userSpaceOnUse">
<stop offset="0.238382" stop-color="#002924"/>
<stop offset="1" stop-color="#010101"/>
</linearGradient>
<linearGradient id="paint1_linear_14_83" x1="14.5" y1="28.5" x2="28" y2="28.5" gradientUnits="userSpaceOnUse">
<stop stop-color="#00EBCE"/>
<stop offset="0.355769" stop-color="#02BFA3"/>
<stop offset="1" stop-color="#01594C"/>
</linearGradient>
</defs>
</svg>
